<svg xmlns="http://www.w3.org/2000/svg" fill="none" viewBox="0 0 130 31" height="31" width="130">
<g clip-path="url(#clip0_4643_10066)">
<path fill="#212121" d="M38.9925 30.6075H38.8952H36.0443H35.9473V30.5099V25.0884V24.9914H36.0443H36.9236H37.0206V25.0884V29.6242H38.8952H38.9925V29.7212V30.5099V30.6075Z" clip-rule="evenodd" fill-rule="evenodd"></path>
<path fill="#212121" d="M46.8579 30.751C46.064 30.7559 45.3006 30.4456 44.7352 29.8882C44.1653 29.3349 43.8643 28.6162 43.8643 27.8101C43.8643 27.0073 44.1653 26.2858 44.7352 25.7241C45.3036 25.1724 46.0657 24.8656 46.8579 24.8697C47.6671 24.8697 48.3987 25.1652 48.973 25.7241C49.5482 26.2909 49.8512 27.0124 49.8512 27.8101C49.8512 28.6112 49.5476 29.3293 48.973 29.8882C48.4084 30.442 47.6488 30.7519 46.8579 30.751ZM46.8579 25.8749C46.6092 25.8746 46.363 25.9243 46.1339 26.0209C45.9048 26.1176 45.6975 26.2594 45.5242 26.4378C45.171 26.7982 44.9763 27.2859 44.9763 27.8101C44.9763 28.3376 45.1657 28.809 45.5242 29.1757C45.6966 29.3551 45.9039 29.4975 46.1332 29.5941C46.3625 29.6908 46.609 29.7397 46.8579 29.738C47.3652 29.738 47.8232 29.5434 48.1839 29.1757C48.3622 28.9961 48.5032 28.7829 48.5986 28.5485C48.694 28.3141 48.742 28.0631 48.7398 27.8101C48.7425 27.2973 48.5427 26.8041 48.1839 26.4378C48.0127 26.2588 47.8068 26.1166 47.5788 26.0199C47.3509 25.9231 47.1055 25.8738 46.8579 25.8749Z" clip-rule="evenodd" fill-rule="evenodd"></path>
<path fill="#212121" d="M60.5519 30.9495L60.3877 30.7919L56.8769 27.4177C56.7496 27.2949 56.6297 27.1646 56.5178 27.0275V30.6075H55.5127V24.6478L55.6769 24.8064L59.119 28.1201C59.2693 28.2652 59.4119 28.4181 59.5462 28.5781V24.9909H60.5519V30.9495Z" clip-rule="evenodd" fill-rule="evenodd"></path>
<path fill="#212121" d="M67.9733 30.6075H66.4541V24.9909H67.7424C68.7643 24.9909 69.5716 24.9909 70.2572 25.5196C70.9081 26.0185 71.2506 26.8078 71.2506 27.8028C71.2506 28.7923 70.9081 29.5794 70.2572 30.0783C69.626 30.5705 68.9426 30.6075 67.9733 30.6075ZM67.5282 29.617H67.7497L67.9722 29.6181H68.174C68.7369 29.6181 69.1966 29.5934 69.5593 29.284C69.9438 28.9548 70.1395 28.4554 70.1395 27.7956C70.1395 27.1357 69.9438 26.6351 69.5593 26.3071C69.1893 25.9972 68.7077 25.973 68.0675 25.973H67.9145L67.7497 25.9742H67.5282V29.617Z" clip-rule="evenodd" fill-rule="evenodd"></path>
<path fill="#212121" d="M79.6743 30.7505C78.8806 30.7553 78.1173 30.4452 77.5518 29.8882C76.9818 29.335 76.6807 28.6163 76.6807 27.8101C76.6807 27.0074 76.9818 26.2858 77.5518 25.7241C78.1203 25.1726 78.8823 24.8661 79.6743 24.8703C80.4832 24.8703 81.2154 25.1652 81.7889 25.7241C82.364 26.2903 82.6673 27.0124 82.6673 27.8101C82.6709 28.1984 82.5948 28.5832 82.4437 28.9408C82.2926 29.2985 82.0697 29.6213 81.7889 29.8894C81.224 30.4423 80.4647 30.7514 79.6743 30.7505ZM79.6743 25.8749C79.4256 25.8745 79.1794 25.9241 78.9502 26.0208C78.7211 26.1175 78.5138 26.2593 78.3406 26.4378C77.9874 26.7982 77.7924 27.286 77.7924 27.8101C77.7924 28.3377 77.9824 28.8097 78.3406 29.1757C78.5134 29.3536 78.7201 29.4951 78.9485 29.5917C79.1769 29.6883 79.4224 29.738 79.6704 29.738C79.9183 29.738 80.1638 29.6883 80.3922 29.5917C80.6207 29.4951 80.8274 29.3536 81.0001 29.1757C81.1786 28.9962 81.3196 28.7831 81.4151 28.5487C81.5105 28.3143 81.5585 28.0632 81.5562 27.8101C81.5589 27.2973 81.3591 26.8041 81.0001 26.4378C80.829 26.2587 80.6232 26.1165 80.3952 26.0197C80.1673 25.9229 79.9219 25.8737 79.6743 25.8749Z" clip-rule="evenodd" fill-rule="evenodd"></path>
<path fill="#212121" d="M93.3673 30.95L93.2042 30.7919L89.6926 27.4177C89.5652 27.2948 89.4452 27.1646 89.3333 27.0275V30.6069H88.3281V24.6478L88.4924 24.8059L91.9344 28.119C92.0848 28.2646 92.2276 28.4178 92.3622 28.5781V24.9914H93.3673V30.95Z" clip-rule="evenodd" fill-rule="evenodd"></path>
<path fill="#212121" d="M4.17899 13.9311H4.08175H2.60431H2.50699V13.8338V2.72139H0.183634H0.0869141V2.62443V0.822662V0.725708H0.183634H6.48919H6.58622V0.822662V2.62443V2.72139H6.48919H4.17899V13.8338V13.9311Z" clip-rule="evenodd" fill-rule="evenodd"></path>
<path fill="#212121" d="M20.979 13.9311H20.8818H15.7991H15.7021V13.8338V0.822662V0.725708H15.7991H20.8818H20.979V0.822662V2.62443V2.72139H20.8818H17.3736V5.78452H20.8818H20.979V5.88121V7.73762V7.83488H20.8818H17.3736V11.8446H20.8818H20.979V11.9415V13.8338V13.9311Z" clip-rule="evenodd" fill-rule="evenodd"></path>
<path fill="#212121" d="M33.1418 13.9314L32.9512 13.9311H30.6572V0.725708H32.7539C34.4646 0.725708 35.8159 0.725708 36.9525 1.97691C38.0196 3.14689 38.5833 5.0005 38.5833 7.33735C38.5833 9.66243 38.0196 11.5096 36.9525 12.6807C35.905 13.8445 34.7634 13.9314 33.1418 13.9314ZM32.3286 11.8261H32.7662C32.894 11.8261 33.019 11.8275 33.1404 11.828C33.2562 11.8294 33.3689 11.8306 33.4793 11.8306C34.4335 11.8306 35.2132 11.7694 35.8386 11.0062C36.5085 10.1908 36.8482 8.94992 36.8482 7.31915C36.8482 5.68839 36.5085 4.44775 35.8386 3.63208C35.1984 2.86801 34.4186 2.81055 33.3019 2.81055L33.044 2.81164L32.7662 2.81221H32.3286V11.8261Z" clip-rule="evenodd" fill-rule="evenodd"></path>
<path fill="#212121" d="M62.6759 13.9306H60.2734V0.725952H62.6636C63.6183 0.725952 64.3958 0.77641 64.9884 1.41131C65.5719 2.01734 65.9066 3.04294 65.9066 4.22577C65.9066 5.53002 65.5008 6.47324 64.7574 6.91411C65.716 7.27938 66.3018 8.48547 66.3018 10.1401C66.3018 11.2119 66.0254 12.2208 65.545 12.9069C64.8768 13.8619 64.0152 13.9306 62.6759 13.9306ZM61.9196 11.9719H62.3323C63.167 11.9719 63.7136 11.9107 64.0348 11.5988C64.3807 11.2638 64.5791 10.6856 64.5791 10.0123C64.5791 9.22238 64.3437 8.61049 63.9171 8.28845C63.5801 8.03449 63.1838 8.01377 62.7734 8.01377C62.7039 8.01377 62.6333 8.01486 62.5616 8.01515C62.4861 8.01601 62.4097 8.01647 62.3323 8.01652H61.9196V11.9719ZM61.9196 6.22181H62.3832C63.7405 6.22181 64.2226 5.77554 64.2226 4.51699C64.2226 2.94902 63.6547 2.68496 62.3832 2.68496H61.9196V6.22181Z" clip-rule="evenodd" fill-rule="evenodd"></path>
<path fill="#212121" d="M83.5929 13.9311H81.8208L81.8001 13.863L80.7887 10.5824H77.327L76.291 13.8633L76.2692 13.9311H74.5117L74.5521 13.8045L78.9595 0.283352L79.0514 0L79.144 0.283352L83.5519 13.8045L83.5929 13.9311ZM77.9359 8.62341H80.2063C80.2063 8.62341 79.1518 5.17318 79.0683 4.78524C78.9932 5.15803 77.9359 8.62341 77.9359 8.62341Z" clip-rule="evenodd" fill-rule="evenodd"></path>
<path fill="#212121" d="M99.6328 13.9312H99.468H97.5563H97.4991L97.4716 13.8798L94.0487 7.57423V13.8338V13.9312H93.9517H92.474H92.377V13.8338V0.822698V0.725952H92.474H93.9517H94.0487V0.822698V5.86305L97.1426 0.771936L97.1706 0.725952H97.2251H99.034H99.2095L99.1165 0.874005L95.5421 6.61201L99.5521 13.7868L99.6328 13.9312Z" clip-rule="evenodd" fill-rule="evenodd"></path>
<path fill="#212121" d="M113.721 13.9306H113.624H108.542H108.445V13.8338V0.822127V0.725952H108.542H113.624H113.721V0.822127V2.6239V2.72085H113.624H110.116V5.78456H113.624H113.721V5.88125V7.73765V7.8344H113.624H110.116V11.8446H113.624H113.721V11.9418V13.8338V13.9306Z" clip-rule="evenodd" fill-rule="evenodd"></path>
<path fill="#212121" d="M129.912 13.9311H128.024L127.996 13.8787L124.992 8.10819H124.982V13.9311H123.399V0.725708H125.56C126.579 0.725708 127.326 0.852919 127.899 1.48529C128.474 2.13449 128.803 3.19901 128.803 4.40768C128.803 6.48804 128.117 7.69252 126.764 7.98988L129.837 13.7887L129.912 13.9311ZM125.071 6.27587H125.242C126.547 6.27587 127.093 6.04183 127.093 4.58959C127.093 3.01658 126.497 2.73989 125.242 2.73989H125.071V6.27587Z" clip-rule="evenodd" fill-rule="evenodd"></path>
</g>
<defs>
<clipPath id="clip0_4643_10066">
<rect transform="translate(0.0869141)" fill="white" height="30.95" width="129.826"></rect>
</clipPath>
</defs>
</svg>
