<svg xmlns="http://www.w3.org/2000/svg" xml:space="preserve" width="64" height="64" id="google-wallet">
  <g fill="#1476C6">
    <path d="M36 59.4c-.1.1-.3.2-.4.2-.4.2-.8.2-1.1.2-.4 0-1 0-1.6-.5-.8-.6-1.2-1.6-1.2-2.5 0-1.8 1.5-2.7 2.7-2.7.4 0 .9.1 1.2.3.6.4.7.9.8 1.2l-2.8 1.1-.9.1c.3 1.5 1.3 2.4 2.4 2.4.6 0 1-.2 1.4-.4l-.5.6zm-1.1-3.5c.2-.1.3-.2.3-.3 0-.5-.5-1-1.2-1-.5 0-1.3.4-1.3 1.6v.6l2.2-.9"></path>
    <path d="M31.5 59.6h-2.1c.3-.3.3-.4.3-.6v-5.3c0-.6.1-1.3.1-1.9h-.9l.9-.4h1.7c-.4.2-.5.3-.5.7-.1.9-.1 2.3-.1 4v2.7c0 .5.1.5.5.6.2 0 .4 0 .6.1l-.5.1M27.6 54.7c.3.2.8.7.8 1.6 0 .9-.5 1.3-1 1.7-.2.2-.3.3-.3.6s.2.4.3.5l.4.3c.5.4 1 .8 1 1.6 0 1.1-1.1 2.2-3.1 2.2-1.7 0-2.5-.8-2.5-1.7 0-.4.2-1 .9-1.4.7-.4 1.7-.5 2.2-.5-.2-.2-.4-.4-.4-.8 0-.2.1-.3.1-.5h-.4c-1.2 0-1.9-.9-1.9-1.8 0-.5.2-1.1.7-1.6.7-.5 1.5-.6 2.1-.6h2.4l-.8.4h-.5zm-.8 5.2h-.3c-.1 0-.7 0-1.2.2-.3.1-1 .4-1 1.2 0 .8.8 1.4 2.1 1.4 1.1 0 1.7-.5 1.7-1.3 0-.5-.4-.8-1.3-1.5m.3-2.2c.3-.3.3-.6.3-.9 0-.8-.5-2.2-1.5-2.2-.3 0-.6.2-.8.4-.2.2-.3.6-.3.9 0 .8.5 2.1 1.5 2.1.3.1.7-.1.8-.3M20.4 59.8c-1.9 0-2.9-1.5-2.9-2.8 0-1.5 1.3-2.8 3-2.8s2.8 1.3 2.8 2.8c.1 1.3-1 2.8-2.9 2.8m1.5-1c.3-.4.3-.8.3-1.3 0-1-.5-3-1.9-3-.4 0-.8.2-1.1.4-.5.4-.5.9-.5 1.4 0 1.2.6 3.1 2 3.1.4 0 .9-.2 1.2-.6M14.2 59.8c-1.9 0-2.9-1.5-2.9-2.8 0-1.5 1.3-2.8 3-2.8s2.8 1.3 2.8 2.8c0 1.3-1 2.8-2.9 2.8m1.4-1c.3-.4.4-.8.4-1.3 0-1-.5-3-1.9-3-.4 0-.8.2-1.1.4-.5.4-.5.9-.5 1.4 0 1.2.6 3.1 2 3.1.4 0 .9-.2 1.1-.6M10.6 59.4l-1.6.3c-.6.1-1.2.2-1.8.2-3 0-4.2-2.2-4.2-4 0-2.1 1.6-4.1 4.4-4.1.6 0 1.2.1 1.7.2.8.2 1.2.5 1.4.7l-.9.9-.4.1.3-.4c-.4-.4-1.1-1-2.3-1-1.7 0-3 1.3-3 3.2 0 2.1 1.5 4 3.9 4 .7 0 1.1-.1 1.4-.3v-1.8l-1.7.1.9-.5H11l-.3.3c-.1.1-.1.1-.1.2v1.9M41.1 59.6h-.8L39 54.3h.7l1 4.8 1-4.8h.8l1.1 4.8 1-4.8h.6L44 59.6h-.8l-1-4.7-1.1 4.7M49.1 56c0-.9-.4-1.2-1.3-1.2-.7 0-1.1.4-1.2 1l-.6-.1c.1-.9.8-1.4 1.8-1.4 1.2 0 1.8.5 1.8 1.7v2.7c0 .5 0 .8.1 1h-.6c-.1-.1-.1-.4-.1-.6-.3.4-.8.7-1.4.7-1 0-1.7-.6-1.7-1.8 0-1.1.8-1.7 1.9-1.7.5 0 1 .1 1.3.2V56zm0 1.1c-.3-.1-.7-.3-1.3-.3-.7 0-1.3.4-1.3 1.1 0 .8.5 1.2 1.2 1.2.6 0 1.1-.4 1.4-.9v-1.1M50.9 59.6h.6V52h-.6v7.6zM52.8 59.6h.6V52h-.6v7.6zM56.4 59.2c.6 0 1.1-.4 1.2-1.4l.6.1c-.2 1.3-.9 1.9-1.8 1.9-1.3 0-2-.9-2-2.8 0-1.7.6-2.7 1.9-2.7 1.4 0 1.9 1.1 1.9 2.7v.2H55c0 1.3.5 2 1.4 2m1.2-2.7c0-1-.4-1.8-1.3-1.8-.8 0-1.3.7-1.3 1.8h2.6M61 59.6c-.1.1-.4.1-.6.1-.8 0-1-.4-1-1.2v-3.7h-.7v-.5h.7v-1.7l.6-.2v1.9h1v.5h-1.1v3.6c0 .5.1.6.5.6.2 0 .4 0 .5-.1v.7"></path>
  </g>
  <path fill="#1476C6" d="M25 21.2c-2.6-3.6-6.2-6.7-10.3-8.9-.6-.3-1.3-.5-2-.5-1.6 0-3 .9-3.8 2.3-1.1 2.1-.3 4.7 1.8 5.8 6.3 3.4 10.4 9.8 10.9 17.3-.1-.8.1-1.6.4-2.4.1-.1.1-.2.2-.3 2-3.2 3-7 3-10.8-.1-.9-.1-1.7-.2-2.5"></path>
  <path fill="#47AE33" d="M49.9 13.1c-.8-3.3-1.9-6.6-3.4-9.7C45.7 1.8 44 .7 42.2.7c-.7 0-1.4.2-2 .5-2.4 1.1-3.4 4-2.2 6.3 2.4 5.1 3.6 10.5 3.6 16.1 0 5.6-1.2 11-3.6 16 0 .1-.5 1-.5 2 0 .3 0 .7.1 1.1.3 1.3 1.2 2.6 2.6 3.2.6.3 1.3.5 2 .5 1.7 0 3.3-1 4.2-2.5.9-1.8 1.9-4.1 2.7-7.1.3-.9.5-1.8.7-2.7.8-3.4 1.2-6.9 1.2-10.5.1-3.5-.3-7.1-1.1-10.5"></path>
  <path fill="#ED114C" d="M29.9 8.2c-.1-.1-.2-.3-.3-.4-.3-.4-.7-.8-1.1-1-.7-.6-1.6-.8-2.5-.8-.7 0-1.1.1-1.6.3-.5.2-1.1.5-1.6 1s-.8 1.1-1 1.7c-.4 1.1-.4 2.7.4 3.9 1.6 2.5 2.5 5.4 2.8 8.4.1.8.1 1.6.1 2.4 0 3.8-1 7.5-3 10.8-.1.1-.1.2-.2.3-.4.8-.5 1.6-.4 2.4.1 1.4.9 2.7 2.2 3.5.3.2.7.3 1 .5.4.1.9.2 1.3.2 1.6 0 3-.8 3.9-2.2 2.5-4.1 3.9-8.7 4.3-13.5 0-.6.1-1.3.1-1.9-.1-5.7-1.6-11-4.4-15.6"></path>
  <path fill="#FBBF16" d="M38 39.6c2.4-5 3.6-10.4 3.6-16 0-1.9-.1-3.3-.2-4.2-3.1-5-7.6-9.4-12.9-12.7l.1.1c.4.3.7.5 1 1 .1.1.2.2.3.4 2.8 4.6 4.3 10 4.3 15.4 0 .7 0 1.3-.1 1.9 2.3 4.3 3.5 9.2 3.5 14.3v1.5c0-.5.2-1.1.3-1.6.1 0 .1-.1.1-.1"></path>
  <path fill="#F98E19" d="M28.6 6.8c.1.1.3.2.4.3-.1 0-.1-.1-.2-.1-.1-.1-.2-.2-.4-.2.1-.1.2 0 .2 0zM37.8 24.9c-1.5-7-4.5-13-8.1-17.1.1.1.2.2.2.3 2.8 4.6 4.3 10 4.3 15.4 0 .7 0 1.3-.1 1.9 2.3 4.3 3.5 9.2 3.5 14.3v1.5c0-.5.2-1.1.3-1.6 0-.1.1-.2.1-.2l.7-4c.1-3.2-.1-6.8-.9-10.5z"></path>
  <path fill="#0F51B2" d="M21.5 37.2s0-.1 0 0c0-.1 0 0 0 0zM25 21.2c-1.7-2.4-4-4.6-6.5-6.5.4 1.2.8 2.5 1.1 3.7 1.6 6.3 2.2 12.4 1.8 17.5 0 .4.1.8.1 1.1-.1-.8.1-1.6.4-2.4.1-.1.1-.2.2-.3 2-3.2 3-7 3-10.8 0-.7 0-1.5-.1-2.3z"></path>
  <path fill="#48C92D" d="M38 39.7c4.6-5.7 7.8-17.1 7.8-30.2 0-2.6-.1-5.1-.4-7.5-.9-.8-2-1.2-3.1-1.2-.7 0-1.4.2-2 .5-2.4 1.1-3.4 4-2.2 6.3 2.4 5.1 3.6 10.5 3.6 16.1 0 5.6-1.2 11-3.6 16-.1-.1-.1-.1-.1 0z"></path>
  <path fill="#FF4382" d="M21.9 34.7c-.2.4-.3.9-.4 1.4 3.8-4.5 6.5-13.7 6.5-24.3 0-1.9-.1-3.7-.2-5.5-.6-.2-1.2-.3-1.8-.3-.7 0-1.1.1-1.6.3-.5.2-1.1.5-1.6 1s-.8 1.1-1 1.7c-.4 1.1-.4 2.7.4 3.9 1.6 2.5 2.5 5.4 2.8 8.4.1.8.1 1.6.1 2.4 0 3.8-1 7.5-3 10.8l-.2.2z"></path>
</svg>
