<svg id="Layer_1" data-name="Layer 1" xmlns="http://www.w3.org/2000/svg" width="5000" height="1191.9833" viewBox="0 0 5000 1191.9833"><polygon points="1498.384 1178.793 1494.639 1178.793 1384.841 1178.793 1381.104 1178.793 1381.104 1175.035 1381.104 966.235 1381.104 962.499 1384.841 962.499 1418.704 962.499 1422.441 962.499 1422.441 966.235 1422.441 1140.924 1494.639 1140.924 1498.384 1140.924 1498.384 1144.658 1498.384 1175.035 1498.384 1178.793 1498.384 1178.793" fill="#212121" fill-rule="evenodd"/><path d="M1801.3086,1184.3205a115.44819,115.44819,0,0,1-81.753-33.2292c-21.945-21.3082-33.541-48.9882-33.541-80.0352,0-30.9166,11.596-58.7049,33.541-80.3381a116.51408,116.51408,0,0,1,81.753-32.9042c31.1664,0,59.3416,11.3793,81.4612,32.9042,22.1506,21.8278,33.8195,49.616,33.8195,80.3381,0,30.8525-11.691,58.5103-33.8195,80.0352a116.15715,116.15715,0,0,1-81.4612,33.2292Zm0-187.7946a71.48629,71.48629,0,0,0-51.3648,21.6774c-13.6012,13.882-21.1027,32.6654-21.1027,52.8528,0,20.3177,7.2959,38.4733,21.1027,52.594a70.55564,70.55564,0,0,0,51.3648,21.6554c19.5397,0,37.1778-7.4926,51.0708-21.6554a73.73665,73.73665,0,0,0,21.4077-52.594,74.97919,74.97919,0,0,0-21.4077-52.8528,70.2429,70.2429,0,0,0-51.0708-21.6774Z" fill="#212121" fill-rule="evenodd"/><path d="M2328.6863,1191.9634l-6.3253-6.0688-135.2115-129.9519a171.8043,171.8043,0,0,1-13.8289-15.0272v137.8778h-38.7099V949.2644l6.32544,6.1108,132.565,127.6195a229.95963,229.95963,0,0,1,16.451,17.6404V962.4787h38.7342v229.4847Z" fill="#212121" fill-rule="evenodd"/><path d="M2614.52129,1178.7933H2556.011V962.4787h49.616c39.3577,0,70.449,0,96.8532,20.3598,25.0667,19.2145,38.25891,49.6138,38.25891,87.9368,0,38.1063-13.19221,68.4194-38.25891,87.6361-24.3106,18.9559-50.6286,20.3819-87.9589,20.3819Zm-17.143-38.1505h8.5295l8.56931.042h7.77339c21.67761,0,39.3819-.9485,53.3501-12.8672,14.8106-12.6748,22.3452-31.9115,22.3452-57.3231s-7.5346-44.6925-22.3452-57.3231c-14.2489-11.9386-32.7958-12.8672-57.4511-12.8672h-5.8943l-6.3474.0443h-8.5295v140.2943Z" fill="#212121" fill-rule="evenodd"/><path d="M3065.17788,1184.2984a115.4822,115.4822,0,0,1-81.742-33.2071c-21.9561-21.3082-33.552-48.9882-33.552-80.0352,0-30.9166,11.5959-58.7049,33.552-80.3381a116.49066,116.49066,0,0,1,81.742-32.8821c31.1553,0,59.3526,11.3572,81.43912,32.8821,22.1505,21.8056,33.8327,49.616,33.8327,80.3381a109.32353,109.32353,0,0,1-33.8327,80.0794,116.22871,116.22871,0,0,1-81.43912,33.1629Zm0-187.7725a71.3932,71.3932,0,0,0-51.3649,21.6774c-13.6012,13.882-21.1136,32.6654-21.1136,52.8528,0,20.3177,7.3179,38.4954,21.1136,52.594a71.38526,71.38526,0,0,0,102.4268,0,73.64951,73.64951,0,0,0,21.41679-52.594,74.9496,74.9496,0,0,0-21.41679-52.8528,70.135,70.135,0,0,0-51.0619-21.6774Z" fill="#212121" fill-rule="evenodd"/><path d="M3592.5445,1191.9833l-6.283-6.0887-135.2428-129.9519a172.15211,172.15211,0,0,1-13.8377-15.0272v137.8557h-38.7121V949.2644l6.3255,6.0887,132.5649,127.5996a233.315,233.315,0,0,1,16.4731,17.6824V962.4986h38.7121v229.4847Z" fill="#212121" fill-rule="evenodd"/><polygon points="157.599 536.533 153.854 536.533 96.953 536.533 93.205 536.533 93.205 532.785 93.205 104.81 3.725 104.81 0 104.81 0 101.076 0 31.684 0 27.95 3.725 27.95 246.572 27.95 250.309 27.95 250.309 31.684 250.309 101.076 250.309 104.81 246.572 104.81 157.599 104.81 157.599 532.785 157.599 536.533 157.599 536.533" fill="#212121" fill-rule="evenodd"/><polygon points="804.619 536.533 800.874 536.533 605.125 536.533 601.391 536.533 601.391 532.785 601.391 31.684 601.391 27.95 605.125 27.95 800.874 27.95 804.619 27.95 804.619 31.684 804.619 101.076 804.619 104.81 800.874 104.81 665.762 104.81 665.762 222.781 800.874 222.781 804.619 222.781 804.619 226.505 804.619 298.001 804.619 301.747 800.874 301.747 665.762 301.747 665.762 456.173 800.874 456.173 804.619 456.173 804.619 459.907 804.619 532.785 804.619 536.533 804.619 536.533" fill="#212121" fill-rule="evenodd"/><path d="M1273.0355,536.5417l-7.3422-.0088h-88.3481V27.9496h80.7493c65.8836,0,117.9271,0,161.6999,48.1879,41.0976,45.0594,62.8082,116.448,62.8082,206.4475,0,89.5464-21.7106,160.6873-62.8082,205.7888-40.3415,44.8229-84.3088,48.1679-146.7589,48.1679Zm-31.319-81.0809h16.8534c4.9215,0,9.7366.053,14.4103.0751,4.4593.0531,8.7992.0973,13.0507.0973,36.7489,0,66.7812-2.3546,90.864-31.7501,25.8007-31.403,38.8846-79.1929,38.8846-141.9989s-13.0839-110.587-38.8846-142.0011c-24.6555-29.4265-54.6877-31.6396-97.6955-31.6396l-9.9334.042-10.6961.0221h-16.8534V455.4608Z" fill="#212121" fill-rule="evenodd"/><path d="M2410.49239,536.5108H2317.9659V27.9585h92.0512c36.76889,0,66.71479,1.9433,89.53519,26.3954,22.4756,23.34,35.3649,62.8392,35.3649,108.3939,0,50.2306-15.6308,86.5572-44.25909,103.5366,36.91909,14.0677,59.48079,60.5178,59.48079,124.2435,0,41.2789-10.6452,80.1325-29.1479,106.5589-25.7344,36.7798-58.9193,39.424-110.4986,39.424Zm-29.1256-75.4367h15.8914c32.1481,0,53.1978-2.3545,65.5696-14.3683,13.3204-12.9004,20.96331-35.1703,20.96331-61.1015,0-30.4214-9.06671-53.9869-25.49781-66.3898-12.9755-9.7808-28.2414-10.5789-44.0446-10.5789-2.6774,0-5.3967.042-8.1603.053q-4.35765.0498-8.8302.0531h-15.8914V461.0741Zm0-221.4526h17.8547c52.2712,0,70.838-17.1872,70.838-65.658,0-60.3874-21.8698-70.5573-70.838-70.5573h-17.8547V239.6215Z" fill="#212121" fill-rule="evenodd"/><path d="M3216.0953,536.5329h-68.2491l-.7981-2.6243-38.94872-126.346H2974.7781l-39.89932,126.357-.8421,2.6133H2866.3511l1.55418-4.8794,169.7452-520.7407L3041.1901,0l3.56388,10.9128,169.765,520.7407,1.5763,4.8794Zm-217.86882-204.418h87.4394s-40.6113-132.8791-43.82778-147.8201c-2.89212,14.3573-43.61162,147.8201-43.61162,147.8201Z" fill="#212121" fill-rule="evenodd"/><polygon points="3833.818 536.533 3827.47 536.533 3753.846 536.533 3751.644 536.533 3750.585 534.556 3618.756 291.707 3618.756 532.785 3618.756 536.533 3615.02 536.533 3558.108 536.533 3554.372 536.533 3554.372 532.785 3554.372 31.684 3554.372 27.958 3558.108 27.958 3615.02 27.958 3618.756 27.958 3618.756 31.684 3618.756 225.804 3737.913 29.729 3738.992 27.958 3741.088 27.958 3810.758 27.958 3817.517 27.958 3813.933 33.66 3676.272 254.649 3830.709 530.973 3833.818 536.533 3833.818 536.533" fill="#212121" fill-rule="evenodd"/><polygon points="4376.428 536.511 4372.692 536.511 4176.954 536.511 4173.239 536.511 4173.239 532.785 4173.239 31.662 4173.239 27.958 4176.954 27.958 4372.692 27.958 4376.428 27.958 4376.428 31.662 4376.428 101.054 4376.428 104.788 4372.692 104.788 4237.58 104.788 4237.58 222.781 4372.692 222.781 4376.428 222.781 4376.428 226.505 4376.428 298.001 4376.428 301.727 4372.692 301.727 4237.58 301.727 4237.58 456.173 4372.692 456.173 4376.428 456.173 4376.428 459.918 4376.428 532.785 4376.428 536.511 4376.428 536.511" fill="#212121" fill-rule="evenodd"/><path d="M5000,536.5329h-72.7371l-1.0789-2.0185-115.6828-222.242h-.3872V536.5329h-60.9511V27.9496h83.21c39.2516,0,68.0325,4.8993,90.0968,29.2541,22.1307,25.0026,34.8033,66.0007,34.8033,112.5503,0,80.1214-26.4042,126.5096-78.5448,137.9619l118.38,223.3318L5000,536.5329ZM4813.5453,241.7041h6.5861c50.2619,0,71.2913-9.0137,71.2913-64.9439,0-60.5819-22.973-71.2382-71.2913-71.2382h-6.5861V241.7041Z" fill="#212121" fill-rule="evenodd"/></svg>